<svg xmlns="http://www.w3.org/2000/svg" width="245" height="128" fill="none" xmlns:v="https://vecta.io/nano"><g stroke="#fff" stroke-width="1.518" stroke-miterlimit="10"><path d="M122.994 126.661c34.606 0 62.659-27.906 62.659-62.33S157.6 2 122.994 2 60.335 29.906 60.335 64.331s28.054 62.33 62.659 62.33z"/><path d="M122.994 126.661c24.525 0 44.406-27.906 44.406-62.33S147.519 2 122.994 2 78.588 29.906 78.588 64.331s19.881 62.33 44.406 62.33z"/><path d="M122.994 126.661c14.46 0 26.182-27.906 26.182-62.33S137.454 2 122.994 2 96.812 29.906 96.812 64.331s11.722 62.33 26.182 62.33z"/><path d="M122.994 126.661c4.379 0 7.929-27.906 7.929-62.33S127.373 2 122.994 2s-7.928 27.906-7.928 62.331 3.549 62.33 7.928 62.33z"/><path d="M87.914 12.781h70.303M68.52 33.406h108.919M68.576 95.227h108.806m-89.639 20.625h70.474" stroke-linecap="round"/></g><path d="M26.554 53.315H16.496L8.539 76.389h6.804l1.272-4.496h9.259l1.45 4.496h7.1l-7.869-23.074zm-8.49 13.549l3.224-8.816h.237l2.958 8.816h-6.419zm22.896-8.224h5.059c3.994 0 4.674.74 4.674 6.212 0 5.413-.68 6.212-4.674 6.212H40.96l-.029-6.212.029-6.212zm-6.212 17.749h11.922c8.845 0 10.531-1.568 10.531-11.537s-1.686-11.537-10.531-11.537H34.748v23.074zm29.739-17.749h5.059c3.994 0 4.674.74 4.674 6.212 0 5.413-.68 6.212-4.674 6.212h-5.059l-.03-6.212.03-6.212zm-6.212 17.749h11.922c8.845 0 10.531-1.568 10.531-11.537s-1.686-11.537-10.531-11.537H58.274v23.074zm37.43 0h6.212V58.344h7.129v-5.029H88.635v5.029h7.07v18.045zm25.955-18.4c5.118 0 6.064 1.065 6.064 6.863s-.946 6.863-6.064 6.863-6.064-1.065-6.064-6.863.946-6.863 6.064-6.863zm-12.573 6.863c0 10.028 1.982 11.892 12.573 11.892s12.572-1.864 12.572-11.892S132.25 52.96 121.66 52.96s-12.573 1.864-12.573 11.892zm58.495 1.745h-6.508c.059 4.319-.858 5.118-5.798 5.118-4.97 0-5.887-1.065-5.887-6.863s.917-6.863 5.887-6.863c4.94 0 5.857.799 5.798 5.088h6.508c.059-8.52-1.864-10.117-12.306-10.117s-12.395 1.864-12.395 11.892 1.952 11.892 12.395 11.892 12.365-1.598 12.306-10.147zm18.037-13.282h-10.058l-7.957 23.074h6.803l1.273-4.496h9.259l1.449 4.496h7.1l-7.869-23.074zm-8.49 13.549l3.225-8.816h.236l2.958 8.816h-6.419zm30.469-13.549h-13.786v23.074h6.213v-7.543h6.094c1.982 0 2.603.651 2.603 3.254 0 2.071.118 3.313.621 4.29h6.804v-.266c-.947-1.065-1.183-3.076-1.183-5.413 0-2.81-1.332-3.727-3.935-4.319 3.136-.71 4.26-2.012 4.26-4.763v-.887c0-6.271-1.154-7.425-7.691-7.425zm-7.573 10.797v-5.768H206c2.603 0 3.077.503 3.077 2.84 0 2.426-.474 2.929-3.077 2.929h-5.975zm23.089 12.277h6.212V58.344h7.129v-5.029h-20.411v5.029h7.07v18.045z" fill="#000"/><path d="M26.554 53.315l.841-.287-.205-.602h-.636v.889zm-10.058 0v-.889h-.634l-.207.599.84.29zM8.539 76.389l-.84-.29-.407 1.179h1.247v-.889zm6.804 0v.889h.672l.183-.647-.855-.242zm1.272-4.496v-.889h-.672l-.183.647.855.242zm9.259 0l.846-.273-.199-.616h-.647v.889zm1.45 4.496l-.846.273.199.616h.647v-.889zm7.1 0v.889h1.242l-.401-1.176-.841.287zm-16.359-9.525l-.835-.305-.437 1.194h1.272v-.889zm3.224-8.816v-.889h-.621l-.213.584.835.305zm.237 0l.843-.283-.203-.606h-.639v.889zm2.958 8.816v.889h1.236l-.393-1.172-.843.283zm2.071-14.438H16.496v1.778h10.058v-1.778zm-10.898.599L7.698 76.099l1.681.58 7.958-23.074-1.681-.58zM8.539 77.278h6.804V75.5H8.539v1.778zm7.659-.647l1.272-4.496-1.711-.484-1.272 4.496 1.711.484zm.417-3.85h9.259v-1.778h-9.259v1.778zm8.413-.616l1.45 4.496 1.692-.546-1.45-4.496-1.692.546zm2.296 5.113h7.1V75.5h-7.1v1.778zm7.941-1.176l-7.869-23.074-1.683.574 7.869 23.074 1.683-.574zm-16.365-8.933l3.224-8.815-1.67-.611-3.224 8.816 1.67.611zm2.39-8.232h.237v-1.778h-.237v1.778zm-.606-.606l2.958 8.816 1.686-.566-2.958-8.815-1.686.566zm3.801 7.644h-6.419v1.778h6.419v-1.778zm16.476-7.335v-.889h-.885l-.004.885.889.004zm0 12.425l-.889.004.004.885h.885v-.889zm-.029-6.212l-.889-.004v.008l.889-.004zm-6.183 11.537h-.889v.889h.889v-.889zm0-23.074v-.889h-.889v.889h.889zm6.212 6.214h5.059V57.75H40.96v1.778zm5.059 0c.989 0 1.688.048 2.202.175.485.12.747.297.929.532.202.262.38.695.496 1.469s.159 1.787.159 3.147h1.778c0-1.376-.042-2.504-.179-3.412s-.378-1.682-.845-2.289c-.488-.633-1.145-.984-1.91-1.173-.737-.183-1.621-.227-2.629-.227v1.778zm3.785 5.323c0 1.345-.043 2.355-.159 3.122s-.294 1.208-.498 1.475c-.37.484-1.075.727-3.128.727v1.778c1.94 0 3.572-.157 4.541-1.425.465-.609.707-1.387.843-2.289s.179-2.026.179-3.387h-1.778zm-3.785 5.323H40.96v1.778h5.059v-1.778zm-4.17.885l-.03-6.212-1.778.008.03 6.212 1.778-.008zm-.03-6.204l.03-6.212-1.778-.008-.03 6.212 1.778.008zm-7.072 12.422h11.922V75.5H34.748v1.778zm11.922 0c2.223 0 4.066-.097 5.565-.421 1.513-.327 2.742-.898 3.668-1.892.92-.987 1.456-2.298 1.77-3.938.313-1.634.417-3.67.417-6.175h-1.778c0 2.479-.106 4.378-.386 5.841-.279 1.458-.717 2.408-1.324 3.059-.601.644-1.453 1.088-2.743 1.367-1.305.282-2.99.381-5.189.381v1.778zm11.42-12.426c0-2.505-.105-4.541-.417-6.176-.314-1.639-.85-2.951-1.77-3.938-.927-.994-2.155-1.565-3.668-1.892-1.499-.324-3.341-.421-5.565-.421v1.778c2.199 0 3.885.099 5.189.381 1.29.279 2.142.722 2.743 1.367.607.651 1.045 1.601 1.324 3.06.28 1.464.386 3.362.386 5.841h1.778zm-11.42-12.426H34.748v1.778h11.922v-1.778zm-12.811.889v23.074h1.778V53.315h-1.778zm30.628 5.325v-.889h-.885l-.004.885.889.004zm0 12.425l-.889.004.004.885h.885v-.889zm-.03-6.212l-.889-.004v.008l.889-.004zm-6.183 11.537h-.889v.889h.889v-.889zm0-23.074v-.889h-.889v.889h.889zm6.212 6.214h5.059V57.75h-5.059v1.778zm5.059 0c.989 0 1.688.048 2.201.175.485.12.747.297.929.532.202.262.38.695.496 1.469s.159 1.787.159 3.147h1.778c0-1.376-.042-2.504-.178-3.412s-.378-1.682-.846-2.289c-.488-.633-1.145-.984-1.91-1.173-.737-.183-1.621-.227-2.629-.227v1.778zm3.785 5.323c0 1.345-.043 2.355-.159 3.122s-.294 1.208-.498 1.475c-.37.484-1.075.727-3.128.727v1.778c1.94 0 3.572-.157 4.541-1.425.465-.609.707-1.387.843-2.289s.179-2.026.179-3.387H73.33zm-3.785 5.323h-5.059v1.778h5.059v-1.778zm-4.17.885l-.03-6.212-1.778.008.029 6.212 1.778-.008zm-.03-6.204l.03-6.212-1.778-.008-.029 6.212 1.778.008zm-7.072 12.422h11.922V75.5H58.274v1.778zm11.922 0c2.223 0 4.066-.097 5.565-.421 1.513-.327 2.742-.898 3.668-1.892.92-.987 1.456-2.298 1.77-3.938.313-1.634.418-3.67.418-6.175h-1.778c0 2.479-.106 4.378-.386 5.841-.279 1.458-.717 2.408-1.324 3.059-.601.644-1.453 1.088-2.743 1.367-1.305.282-2.99.381-5.189.381v1.778zm11.42-12.426c0-2.505-.105-4.541-.418-6.176-.314-1.639-.85-2.951-1.77-3.938-.927-.994-2.155-1.565-3.668-1.892-1.499-.324-3.341-.421-5.565-.421v1.778c2.199 0 3.885.099 5.189.381 1.29.279 2.142.722 2.743 1.367.607.651 1.045 1.601 1.324 3.06.28 1.464.386 3.362.386 5.841h1.778zm-11.42-12.426H58.274v1.778h11.922v-1.778zm-12.811.889v23.074h1.778V53.315h-1.778zm38.319 23.074h-.889v.889h.889v-.889zm6.212 0v.889h.889v-.889h-.889zm0-18.045v-.889h-.889v.889h.889zm7.129 0v.889h.889v-.889h-.889zm0-5.029h.889v-.889h-.889v.889zm-20.412 0v-.889h-.889v.889h.889zm0 5.029h-.889v.889h.889v-.889zm7.07 0h.889v-.889h-.889v.889zm0 18.934h6.212V75.5h-6.212v1.778zm7.101-.889V58.344h-1.778v18.045h1.778zm-.889-17.156h7.129v-1.778h-7.129v1.778zm8.018-.889v-5.029h-1.778v5.029h1.778zm-.889-5.918H88.635v1.778h20.412v-1.778zm-21.3.889v5.029h1.778v-5.029h-1.778zm.889 5.918h7.07v-1.778h-7.07v1.778zm6.181-.889v18.045h1.778V58.344h-1.778zm26.844.534c1.263 0 2.197.067 2.903.233.688.162 1.101.405 1.382.724.291.329.524.831.677 1.66s.213 1.921.213 3.357h1.778c0-1.462-.059-2.682-.242-3.68s-.508-1.853-1.094-2.515c-.594-.672-1.378-1.058-2.307-1.277-.911-.215-2.014-.281-3.31-.281v1.778zm5.175 5.974c0 1.437-.059 2.524-.213 3.357s-.386 1.331-.677 1.66c-.281.319-.694.562-1.382.724-.706.166-1.64.233-2.903.233v1.778c1.296 0 2.399-.066 3.31-.281.929-.219 1.713-.604 2.307-1.277.586-.662.909-1.514 1.094-2.515s.242-2.217.242-3.68h-1.778zm-5.175 5.974c-1.263 0-2.198-.067-2.903-.233-.688-.162-1.101-.405-1.383-.724-.29-.329-.524-.831-.676-1.66s-.214-1.921-.214-3.357h-1.777c0 1.462.058 2.682.242 3.68s.508 1.853 1.094 2.515c.594.672 1.378 1.058 2.306 1.277.912.215 2.015.281 3.311.281v-1.778zm-5.176-5.974c0-1.437.06-2.524.214-3.357s.386-1.331.676-1.66c.282-.319.695-.562 1.383-.724.705-.166 1.64-.233 2.903-.233V57.1c-1.296 0-2.399.066-3.311.281-.928.219-1.712.604-2.306 1.277-.586.662-.909 1.514-1.094 2.515s-.242 2.217-.242 3.68h1.777zm-8.285 0c0 2.523.123 4.599.496 6.281.375 1.695 1.018 3.052 2.097 4.072 1.074 1.015 2.493 1.613 4.263 1.963 1.763.349 3.943.465 6.605.465v-1.778c-2.634 0-4.673-.117-6.26-.431-1.58-.313-2.642-.807-3.387-1.511s-1.256-1.689-1.583-3.164c-.329-1.487-.454-3.406-.454-5.896h-1.777zm13.461 12.781c2.662 0 4.842-.116 6.605-.465 1.77-.35 3.189-.948 4.263-1.963 1.079-1.02 1.721-2.376 2.097-4.072.373-1.682.496-3.758.496-6.281h-1.778c0 2.491-.124 4.409-.454 5.896-.326 1.475-.842 2.464-1.582 3.164s-1.807 1.199-3.387 1.511c-1.588.314-3.627.431-6.26.431v1.778zm13.461-12.781c0-2.523-.123-4.599-.496-6.281-.376-1.695-1.018-3.052-2.097-4.072-1.074-1.015-2.493-1.613-4.263-1.963-1.763-.349-3.943-.465-6.605-.465v1.778c2.633 0 4.672.117 6.26.431 1.58.313 2.642.807 3.387 1.511s1.256 1.69 1.582 3.164c.33 1.487.454 3.405.454 5.897h1.778zM121.66 52.071c-2.662 0-4.842.116-6.605.465-1.77.35-3.189.948-4.263 1.963-1.079 1.02-1.722 2.376-2.097 4.072-.373 1.682-.496 3.758-.496 6.281h1.777c0-2.491.125-4.409.454-5.897.327-1.475.843-2.465 1.583-3.164s1.807-1.199 3.387-1.511c1.587-.314 3.626-.431 6.26-.431v-1.778zm45.922 14.526l.889-.006-.006-.883h-.883v.889zm-6.508 0v-.889h-.901l.012.901.889-.012zm0-3.52l-.889-.012-.012.901h.901v-.889zm6.508 0v.889h.883l.006-.883-.889-.006zm0 2.631h-6.508v1.778h6.508v-1.778zm-7.397.901c.015 1.062-.033 1.836-.164 2.413-.127.559-.319.875-.559 1.087-.252.222-.652.412-1.347.539s-1.617.178-2.839.178v1.778c1.248 0 2.297-.049 3.158-.207s1.616-.437 2.203-.954c.599-.528.935-1.221 1.118-2.027.178-.788.223-1.733.208-2.831l-1.778.024zm-4.909 4.217c-2.528 0-3.58-.303-4.133-.947-.282-.329-.509-.832-.658-1.665s-.207-1.925-.207-3.362H148.5c0 1.462.057 2.68.235 3.675s.491 1.848 1.059 2.51c1.148 1.338 3.04 1.567 5.482 1.567v-1.778zm-4.998-5.974c0-1.437.058-2.527.207-3.362s.376-1.336.658-1.665c.553-.645 1.605-.947 4.133-.947V57.1c-2.442 0-4.334.23-5.482 1.567-.568.662-.881 1.512-1.059 2.51s-.235 2.213-.235 3.675h1.778zm4.998-5.974c1.222 0 2.141.05 2.839.178s1.096.316 1.349.538c.24.21.431.524.557 1.077.131.572.179 1.34.164 2.395l1.778.025c.015-1.09-.03-2.03-.209-2.815-.183-.802-.519-1.493-1.118-2.018-.587-.515-1.339-.793-2.203-.95s-1.909-.206-3.157-.206v1.778zm5.798 5.088h6.508v-1.778h-6.508v1.778zm7.397-.883c.029-4.223-.398-7.183-2.539-8.946-1.056-.869-2.444-1.375-4.169-1.671s-3.864-.395-6.487-.395v1.778c2.598 0 4.615.1 6.186.37s2.618.696 3.34 1.291c1.417 1.166 1.921 3.264 1.891 7.561l1.778.012zm-13.195-11.012c-2.625 0-4.777.116-6.517.465-1.748.351-3.151.95-4.212 1.967s-1.697 2.377-2.066 4.07c-.368 1.681-.489 3.756-.489 6.279h1.778c0-2.491.122-4.41.448-5.899.322-1.477.831-2.467 1.56-3.166s1.776-1.196 3.331-1.508c1.562-.314 3.57-.431 6.167-.431v-1.778zm-13.284 12.781c0 2.523.121 4.597.489 6.278.369 1.693 1.002 3.049 2.066 4.07s2.464 1.617 4.212 1.967c1.74.349 3.892.465 6.517.465v-1.778c-2.597 0-4.605-.117-6.167-.43-1.555-.312-2.599-.805-3.331-1.508s-1.238-1.689-1.56-3.166c-.326-1.489-.448-3.408-.448-5.899h-1.778zm13.284 12.781c2.622 0 4.762-.099 6.487-.396s3.114-.803 4.17-1.675c2.14-1.766 2.567-4.734 2.538-8.971l-1.778.012c.03 4.312-.475 6.418-1.892 7.588-.722.596-1.769 1.024-3.339 1.294s-3.588.37-6.186.37v1.778zm30.343-24.318l.842-.287-.206-.602h-.636v.889zm-10.058 0v-.889h-.634l-.206.599.84.29zm-7.957 23.074l-.841-.29-.406 1.179h1.247v-.889zm6.803 0v.889h.673l.183-.647-.856-.242zm1.273-4.496v-.889h-.673l-.183.647.856.242zm9.259 0l.846-.273-.199-.616h-.647v.889zm1.449 4.496l-.846.273.199.616h.647v-.889zm7.1 0v.889h1.242l-.401-1.176-.841.287zm-16.359-9.525l-.835-.305-.437 1.194h1.272v-.889zm3.225-8.816v-.889h-.622l-.213.584.835.305zm.236 0l.843-.283-.203-.606h-.64v.889zm2.958 8.816v.889h1.236l-.393-1.172-.843.283zm2.071-14.438h-10.058v1.778h10.058v-1.778zm-10.898.599l-7.958 23.074 1.681.58 7.958-23.074-1.681-.58zm-7.117 24.253h6.803V75.5h-6.803v1.778zm7.659-.647l1.272-4.496-1.711-.484-1.272 4.496 1.711.484zm.417-3.85h9.259v-1.778h-9.259v1.778zm8.413-.616l1.449 4.496 1.692-.546-1.449-4.496-1.692.546zm2.295 5.113h7.1V75.5h-7.1v1.778zm7.941-1.176l-7.868-23.074-1.683.574 7.869 23.074 1.682-.574zm-16.365-8.933l3.224-8.815-1.669-.611-3.225 8.816 1.67.611zm2.39-8.232h.236v-1.778h-.236v1.778zm-.607-.606l2.959 8.816 1.685-.566-2.958-8.815-1.686.566zm3.801 7.644h-6.419v1.778h6.419v-1.778zm10.264-12.66v-.889h-.889v.889h.889zm0 23.074h-.889v.889h.889v-.889zm6.213 0v.889h.889v-.889h-.889zm0-7.543v-.889h-.889v.889h.889zm9.318 7.543l-.79.407.248.482h.542v-.889zm6.804 0v.889h.889v-.889h-.889zm0-.266h.889v-.338l-.225-.253-.664.591zm-5.118-9.733l-.196-.867-.001 1.734.197-.867zm-11.004-2.278h-.889v.889h.889v-.889zm0-5.768v-.889h-.889v.889h.889zm7.573-5.918h-13.786v1.778h13.786v-1.778zm-14.675.889v23.074h1.778V53.315h-1.778zm.889 23.963h6.213V75.5h-6.213v1.778zm7.102-.889v-7.543h-1.778v7.543h1.778zm-.889-6.655h6.094v-1.778h-6.094v1.778zm6.094 0c.948 0 1.228.169 1.359.328.182.22.355.734.355 2.037h1.778c0-1.299-.138-2.413-.762-3.169-.675-.818-1.696-.974-2.73-.974v1.778zm1.714 2.365c0 2.057.106 3.505.72 4.697l1.58-.814c-.392-.761-.522-1.798-.522-3.882h-1.778zm1.51 5.178h6.804V75.5h-6.804v1.778zm7.693-.889v-.266h-1.778v.266h1.778zm-.225-.857c-.32-.36-.573-.948-.738-1.806-.162-.847-.22-1.87-.22-3.017h-1.778c0 1.19.059 2.342.252 3.351.191.998.529 1.948 1.156 2.653l1.328-1.181zm-.958-4.823c0-1.546-.37-2.743-1.254-3.622-.844-.84-2.039-1.261-3.373-1.564l-.394 1.734c1.27.288 2.042.622 2.514 1.091.433.431.729 1.097.729 2.361h1.778zm-4.627-3.452c1.636-.37 2.918-.929 3.774-1.893.874-.984 1.178-2.247 1.178-3.737H214.4c0 1.262-.258 2.025-.73 2.557-.49.552-1.338 1-2.837 1.339l.393 1.734zm4.952-5.63v-.887H214.4v.887h1.778zm0-.887c0-1.582-.071-2.906-.302-3.991-.233-1.096-.641-2.013-1.362-2.712s-1.657-1.09-2.782-1.316c-1.116-.224-2.486-.296-4.134-.296v1.778c1.62 0 2.846.073 3.785.261.93.187 1.506.473 1.893.849s.673.921.861 1.805c.19.896.263 2.067.263 3.621h1.778zm-15.264 3.372v-5.768h-1.778v5.768h1.778zm-.889-4.88H206v-1.778h-5.975v1.778zm5.975 0c.634 0 1.08.032 1.402.097.315.064.443.148.503.205s.131.153.19.416c.063.277.093.666.093 1.233h1.778c0-.601-.029-1.151-.137-1.626-.11-.489-.316-.951-.705-1.318-.384-.361-.862-.549-1.367-.652s-1.089-.133-1.757-.133v1.778zm2.188 1.951c0 .59-.03.999-.094 1.291-.061.28-.14.389-.197.444s-.186.142-.498.207c-.32.066-.765.098-1.399.098v1.778c.668 0 1.258-.031 1.76-.135.508-.105.989-.299 1.373-.669s.589-.845.697-1.342c.107-.485.136-1.049.136-1.671h-1.778zM206 63.223h-5.975v1.778H206v-1.778zm17.114 13.166h-.889v.889h.889v-.889zm6.212 0v.889h.889v-.889h-.889zm0-18.045v-.889h-.889v.889h.889zm7.129 0v.889h.889v-.889h-.889zm0-5.029h.889v-.889h-.889v.889zm-20.411 0v-.889h-.889v.889h.889zm0 5.029h-.889v.889h.889v-.889zm7.07 0h.889v-.889h-.889v.889zm0 18.934h6.212V75.5h-6.212v1.778zm7.101-.889V58.344h-1.778v18.045h1.778zm-.889-17.156h7.129v-1.778h-7.129v1.778zm8.018-.889v-5.029h-1.777v5.029h1.777zm-.889-5.918h-20.411v1.778h20.411v-1.778zm-21.3.889v5.029h1.778v-5.029h-1.778zm.889 5.918h7.07v-1.778h-7.07v1.778zm6.181-.889v18.045h1.778V58.344h-1.778z" fill="#fff"/></svg>