<svg xmlns="http://www.w3.org/2000/svg" width="163" height="171" fill="none" xmlns:v="https://vecta.io/nano"><path d="M33.933 102.568l-24.145 23.63 11.583 24.648 21.658 2.119 31.796-31.133 21.403 45.608 21.679 2.12 18.385-18.015-19.171-40.86 26.057 2.564 18.385-18.014-11.562-24.648-20.808-2.035 24.145-23.631-11.584-24.648-21.679-2.119-31.775 31.133L66.898 3.679 45.219 1.56 26.834 19.574l19.171 40.84-26.057-2.543L1.563 75.885l11.562 24.648 20.808 2.035z" fill="#000"/><g stroke="#fff" stroke-width="1.5" stroke-linecap="round" stroke-linejoin="round"><path d="M45.219 1.56l69.394 147.866"/><path d="M131.658 42.802L21.372 150.846"/><path d="M161.563 95.235L31.51 82.519m104.782 69.027l-28.927-61.609M96.228 167.44l-28.905-61.609m6.801-42.662l45.951-45.015m-12.71 71.783l45.972-45.015M19.948 57.871l54.176 5.298m-60.999 37.364l54.198 5.299"/><path d="M88.301 49.288L66.898 3.679m29.33 163.762l-21.403-45.608m-28.82-61.398L26.834 19.574m109.458 131.971l-19.171-40.86m-28.82-61.398l31.775-31.133M43.029 152.966l31.796-31.133m-65.037 4.365l24.145-23.63m95.26-34.015l24.145-23.631"/><path d="M31.51 82.519L19.948 57.871m133.39-12.949l-11.584-24.648m-21.679-2.12l11.583 24.648M1.563 75.885l11.562 24.648m136.876-29.946l11.562 24.648M21.372 150.846L9.788 126.198m10.16-68.327l26.057 2.564m71.116 50.25l26.057 2.564m-25.271 56.311l18.385-18.015m-21.679-2.119L96.228 167.44M19.948 57.871L1.563 75.885m11.562 24.648L31.51 82.519m130.053 12.716l-18.385 18.014M26.834 19.574L45.219 1.56m-2.19 151.405l-21.658-2.119m74.857 16.595l21.679 2.119m-72.688-168l21.679 2.119"/><path d="M136.292 151.545l-21.679-2.119m27.141-129.152l-21.679-2.119m11.583 24.647l21.68 2.119M13.125 100.533l20.808 2.035m95.26-34.016l20.808 2.035"/></g></svg>