<svg xmlns="http://www.w3.org/2000/svg" width="1376" height="486" fill="none" xmlns:v="https://vecta.io/nano"><g fill="#fff"><path d="M610.98 44.06h-53.52L590.241 218h75.82l17.617-136.03h1.784L707.539 218h75.82L809.45 44.06h-49.06l-15.164 136.03h-1.784L724.71 44.06h-75.82l-18.732 136.03h-1.784L610.98 44.06zm215.426 0V218h142.497v-40.14h-95.667v-28.99h84.294v-37.91h-84.294V84.2h95.667V44.06H826.406zm295.284 0h-75.82L985.883 218h51.287l9.59-33.896h69.8L1127.49 218h53.52l-59.32-173.94zm-64 102.134L1082 79.74h1.78l22.3 66.454h-48.39zM1301.91 44.06h-103.92V218h46.83v-56.865h45.94c14.94 0 19.62 4.906 19.62 24.53 0 15.61.89 24.976 4.69 32.335h51.29v-2.007c-7.14-8.028-8.92-23.192-8.92-40.809 0-21.185-10.04-28.098-29.66-32.558 23.63-5.352 32.11-15.164 32.11-35.903v-6.69c0-47.276-8.7-55.973-57.98-55.973zm-57.09 81.395V81.97h45.05c19.62 0 23.19 3.791 23.19 21.408 0 18.286-3.57 22.077-23.19 22.077h-45.05z"/><path d="M610.98 44.06l2.102-.269-.237-1.85h-1.865v2.119zm-53.52 0v-2.119h-2.556l.473 2.512 2.083-.392zM590.241 218l-2.083.392.326 1.727h1.757V218zm75.82 0v2.119h1.862l.239-1.847-2.101-.272zm17.617-136.03v-2.119h-1.863l-.239 1.847 2.102.272zm1.784 0l2.091-.34-.288-1.78h-1.803v2.119zM707.539 218l-2.092.339.289 1.78h1.803V218zm75.82 0v2.119h1.825l.27-1.805-2.095-.314zM809.45 44.06l2.095.314.365-2.433h-2.46v2.119zm-49.06 0v-2.119h-1.896l-.21 1.884 2.106.235zm-15.164 136.03v2.119h1.896l.21-1.884-2.106-.235zm-1.784 0l-2.1.289.252 1.83h1.848v-2.119zM724.71 44.06l2.099-.289-.252-1.83h-1.847v2.119zm-75.82 0v-2.119h-1.848l-.252 1.83 2.1.289zm-18.732 136.03v2.119h1.847l.252-1.83-2.099-.289zm-1.784 0l-2.102.269.236 1.85h1.866v-2.119zM610.98 41.941h-53.52v4.238h53.52v-4.238zm-55.603 2.512l32.781 173.94 4.165-.784-32.781-173.94-4.165.785zm34.864 175.666h75.82v-4.238h-75.82v4.238zm77.921-1.847l17.617-136.03-4.203-.544-17.617 136.03 4.203.544zm15.516-134.183h1.784v-4.238h-1.784v4.238zm-.308-1.78l22.077 136.029 4.183-.678-22.077-136.031-4.183.679zm24.169 137.81h75.82v-4.238h-75.82v4.238zm77.915-1.805l26.091-173.94-4.191-.629-26.091 173.94 4.191.628zM809.45 41.941h-49.06v4.238h49.06v-4.238zm-51.166 1.884l-15.164 136.03 4.212.47 15.164-136.03-4.212-.47zm-13.058 134.146h-1.784v4.238h1.784v-4.238zm.315 1.83l-18.732-136.03-4.199.578 18.732 136.03 4.199-.578zM724.71 41.941h-75.82v4.238h75.82v-4.238zm-77.92 1.83l-18.732 136.03 4.199.578 18.732-136.03-4.199-.578zm-16.632 134.2h-1.784v4.238h1.784v-4.238zm.318 1.85l-17.394-136.03-4.204.538 17.394 136.03 4.204-.538zM826.406 44.06v-2.119h-2.119v2.119h2.119zm0 173.94h-2.119v2.119h2.119V218zm142.497 0v2.119h2.119V218h-2.119zm0-40.14h2.119v-2.119h-2.119v2.119zm-95.667 0h-2.119v2.119h2.119v-2.119zm0-28.99v-2.119h-2.119v2.119h2.119zm84.294 0v2.119h2.119v-2.119h-2.119zm0-37.91h2.119v-2.119h-2.119v2.119zm-84.294 0h-2.119v2.119h2.119v-2.119zm0-26.76v-2.119h-2.119V84.2h2.119zm95.667 0v2.119h2.119V84.2h-2.119zm0-40.14h2.119v-2.119h-2.119v2.119zm-144.616 0V218h4.238V44.06h-4.238zm2.119 176.059h142.497v-4.238H826.406v4.238zM971.022 218v-40.14h-4.238V218h4.238zm-2.119-42.259h-95.667v4.238h95.667v-4.238zm-93.548 2.119v-28.99h-4.238v28.99h4.238zm-2.119-26.871h84.294v-4.238h-84.294v4.238zm86.413-2.119v-37.91h-4.238v37.91h4.238zm-2.119-40.029h-84.294v4.238h84.294v-4.238zm-82.175 2.119V84.2h-4.238v26.76h4.238zm-2.119-24.641h95.667v-4.238h-95.667v4.238zm97.786-2.119V44.06h-4.238V84.2h4.238zm-2.119-42.259H826.406v4.238h142.497v-4.238zm152.787 2.119l2.01-.684-.49-1.435h-1.52v2.119zm-75.82 0v-2.119h-1.51l-.49 1.428 2 .691zM985.883 218l-2.004-.691-.969 2.81h2.973V218zm51.287 0v2.119h1.61l.43-1.542-2.04-.577zm9.59-33.896v-2.119h-1.6l-.44 1.542 2.04.577zm69.8 0l2.02-.65-.48-1.469h-1.54v2.119zM1127.49 218l-2.02.65.47 1.469h1.55V218zm53.52 0v2.119h2.96l-.96-2.803-2 .684zm-123.32-71.806l-1.99-.728-1.04 2.847h3.03v-2.119zM1082 79.74v-2.119h-1.49l-.5 1.391 1.99.728zm1.78 0l2.01-.674-.49-1.445h-1.52v2.119zm22.3 66.454v2.119h2.95l-.94-2.793-2.01.674zm15.61-104.253h-75.82v4.238h75.82v-4.238zm-77.82 1.428l-59.991 173.94 4.007 1.382 59.984-173.94-4-1.382zm-57.987 176.75h51.287v-4.238h-51.287v4.238zm53.327-1.542l9.59-33.896-4.08-1.154-9.59 33.896 4.08 1.154zm7.55-32.354h69.8v-4.238h-69.8v4.238zm67.78-1.469l10.93 33.896 4.03-1.3-10.92-33.896-4.04 1.3zm12.95 35.365h53.52v-4.238h-53.52v4.238zm55.52-2.803l-59.31-173.94-4.02 1.368 59.32 173.94 4.01-1.368zm-123.33-70.394l24.31-66.454-3.98-1.456-24.31 66.454 3.98 1.456zM1082 81.859h1.78v-4.238H1082v4.238zm-.23-1.445l22.3 66.454 4.02-1.348-22.3-66.454-4.02 1.348zm24.31 63.661h-48.39v4.238h48.39v-4.238zm91.91-100.015v-2.119h-2.12v2.119h2.12zm0 173.94h-2.12v2.119h2.12V218zm46.83 0v2.119h2.12V218h-2.12zm0-56.865v-2.119h-2.12v2.119h2.12zM1315.07 218l-1.89.97.59 1.149h1.3V218zm51.29 0v2.119h2.11V218h-2.11zm0-2.007h2.11v-.806l-.53-.602-1.58 1.408zm-38.58-73.367l-.47-2.067v4.133l.47-2.066zm-82.96-17.171h-2.12v2.119h2.12v-2.119zm0-43.485v-2.119h-2.12v2.119h2.12zm57.09-40.029h-103.92v4.238h103.92v-4.238zm-106.04 2.119V218h4.24V44.06h-4.24zm2.12 176.059h46.83v-4.238h-46.83v4.238zm48.95-2.119v-56.865h-4.24V218h4.24zm-2.12-54.746h45.94v-4.238h-45.94v4.238zm45.94 0c7.37 0 11.39 1.242 13.78 4.136 2.51 3.041 3.72 8.458 3.72 18.275h4.24c0-9.807-1.13-16.655-4.69-20.973-3.69-4.465-9.48-5.676-17.05-5.676v4.238zm17.5 22.411c0 15.577.87 25.434 4.92 33.305l3.77-1.94c-3.53-6.847-4.45-15.722-4.45-31.365h-4.24zm6.81 34.454h51.29v-4.238h-51.29v4.238zm53.4-2.119v-2.007h-4.23V218h4.23zm-.53-3.415c-3.2-3.603-5.33-8.968-6.64-15.799-1.3-6.804-1.75-14.846-1.75-23.602h-4.23c0 8.861.44 17.209 1.82 24.398 1.37 7.163 3.7 13.394 7.63 17.819l3.17-2.816zm-8.39-39.401c0-10.929-2.59-18.586-8.09-24.054-5.41-5.376-13.33-8.323-23.21-10.57l-.94 4.132c9.73 2.213 16.64 4.952 21.16 9.444 4.43 4.4 6.85 10.792 6.85 21.048h4.23zm-31.31-30.491c11.99-2.713 20.53-6.637 26.04-12.841 5.55-6.254 7.73-14.488 7.73-25.129h-4.24c0 10.098-2.06 17.14-6.66 22.315-4.64 5.224-12.15 8.882-23.8 11.521l.93 4.134zm33.77-37.97v-6.69h-4.24v6.69h4.24zm0-6.69c0-11.852-.54-21.442-2.18-29.131-1.64-7.716-4.41-13.675-8.98-18.105-4.56-4.424-10.7-7.116-18.67-8.717-7.96-1.597-17.92-2.139-30.27-2.139v4.238c12.29 0 21.9.545 29.43 2.056 7.52 1.508 12.79 3.944 16.56 7.604 3.77 3.653 6.25 8.733 7.79 15.944 1.53 7.238 2.08 16.464 2.08 28.25h4.24zm-115.07 25.422V81.97h-4.24v43.485h4.24zm-2.12-41.366h45.05v-4.238h-45.05v4.238zm45.05 0c4.86 0 8.59.237 11.48.825 2.86.584 4.73 1.485 6.02 2.696 1.27 1.2 2.18 2.895 2.76 5.458.59 2.596.81 5.946.81 10.309h4.24c0-4.445-.22-8.176-.92-11.245-.7-3.102-1.92-5.658-3.99-7.608-2.05-1.938-4.76-3.087-8.08-3.764-3.3-.674-7.38-.91-12.32-.91v4.238zm21.07 19.289c0 4.533-.23 8.013-.82 10.71-.58 2.668-1.49 4.426-2.77 5.662-1.29 1.244-3.15 2.159-6.01 2.752-2.88.596-6.61.834-11.47.834v4.238c4.94 0 9.02-.236 12.33-.922 3.33-.69 6.04-1.865 8.09-3.855 2.07-1.997 3.28-4.616 3.97-7.802.7-3.156.92-7.007.92-11.617h-4.24zm-21.07 19.958h-45.05v4.238h45.05v-4.238z"/><path d="M9.414 274.06v-2.119H7.295v2.119h2.119zm0 173.94H7.295v2.119h2.119V448zm142.497 0v2.119h2.119V448h-2.119zm0-40.14h2.119v-2.119h-2.119v2.119zm-95.667 0h-2.119v2.119h2.119v-2.119zm0-28.99v-2.119h-2.119v2.119h2.119zm84.294 0v2.119h2.119v-2.119h-2.119zm0-37.91h2.119v-2.119h-2.119v2.119zm-84.294 0h-2.119v2.119h2.119v-2.119zm0-26.76v-2.119h-2.119v2.119h2.119zm95.667 0v2.119h2.119V314.2h-2.119zm0-40.14h2.119v-2.119h-2.119v2.119zm-144.616 0V448h4.238V274.06H7.295zm2.119 176.059h142.497v-4.238H9.414v4.238zM154.03 448v-40.14h-4.238V448h4.238zm-2.119-42.259H56.244v4.238h95.667v-4.238zm-93.548 2.119v-28.99h-4.238v28.99h4.238zm-2.119-26.871h84.294v-4.238H56.244v4.238zm86.413-2.119v-37.91h-4.238v37.91h4.238zm-2.119-40.029H56.244v4.238h84.294v-4.238zm-82.175 2.119V314.2h-4.238v26.76h4.238zm-2.119-24.641h95.667v-4.238H56.244v4.238zm97.786-2.119v-40.14h-4.238v40.14h4.238zm-2.119-42.259H9.414v4.238h142.497v-4.238zm185.595 2.119l2.039.578.764-2.697h-2.803v2.119zm-51.29 0v-2.119h-1.641l-.41 1.589 2.051.53zm-34.565 133.8v2.119h1.642l.41-1.589-2.052-.53zm-1.784 0l-2.048.543.418 1.576h1.63v-2.119zm-35.457-133.8l2.049-.543-.418-1.576h-1.631v2.119zm-53.52 0v-2.119h-2.837l.806 2.721 2.031-.602zM212.403 448l-2.031.602.449 1.517h1.582V448zm75.82 0v2.119h1.603l.436-1.541-2.039-.578zm49.283-176.059h-51.29v4.238h51.29v-4.238zm-53.341 1.589L249.6 407.33l4.103 1.06 34.565-133.8-4.103-1.06zm-32.514 132.211h-1.784v4.238h1.784v-4.238zm.265 1.576l-35.457-133.8-4.097 1.086 35.457 133.8 4.097-1.086zM214.41 271.941h-53.52v4.238h53.52v-4.238zm-55.551 2.721l51.513 173.94 4.063-1.204-51.513-173.94-4.063 1.204zm53.544 175.457h75.82v-4.238h-75.82v4.238zm77.859-1.541l49.283-173.94-4.077-1.156-49.283 173.94 4.077 1.156zm56.225-174.518v-2.119h-2.119v2.119h2.119zm0 173.94h-2.119v2.119h2.119V448zm142.497 0v2.119h2.12V448h-2.12zm0-40.14h2.12v-2.119h-2.12v2.119zm-95.667 0h-2.119v2.119h2.119v-2.119zm0-28.99v-2.119h-2.119v2.119h2.119zm84.294 0v2.119h2.12v-2.119h-2.12zm0-37.91h2.12v-2.119h-2.12v2.119zm-84.294 0h-2.119v2.119h2.119v-2.119zm0-26.76v-2.119h-2.119v2.119h2.119zm95.667 0v2.119h2.12V314.2h-2.12zm0-40.14h2.12v-2.119h-2.12v2.119zm-144.616 0V448h4.238V274.06h-4.238zm2.119 176.059h142.497v-4.238H346.487v4.238zM491.104 448v-40.14h-4.239V448h4.239zm-2.12-42.259h-95.667v4.238h95.667v-4.238zm-93.548 2.119v-28.99h-4.238v28.99h4.238zm-2.119-26.871h84.294v-4.238h-84.294v4.238zm86.414-2.119v-37.91h-4.239v37.91h4.239zm-2.12-40.029h-84.294v4.238h84.294v-4.238zm-82.175 2.119V314.2h-4.238v26.76h4.238zm-2.119-24.641h95.667v-4.238h-95.667v4.238zm97.787-2.119v-40.14h-4.239v40.14h4.239zm-2.12-42.259H346.487v4.238h142.497v-4.238zm16.785 2.119v-2.119h-2.119v2.119h2.119zm0 173.94h-2.119v2.119h2.119V448zm46.83 0v2.119h2.119V448h-2.119zm0-56.865v-2.119h-2.119v2.119h2.119zM622.844 448l-1.884.97.592 1.149h1.292V448zm51.29 0v2.119h2.119V448h-2.119zm0-2.007h2.119v-.806l-.536-.602-1.583 1.408zm-38.579-73.367l-.468-2.067-.002 4.133.47-2.066zm-82.956-17.171h-2.119v2.119h2.119v-2.119zm0-43.485v-2.119h-2.119v2.119h2.119zm57.088-40.029H505.769v4.238h103.918v-4.238zM503.65 274.06V448h4.238V274.06h-4.238zm2.119 176.059h46.83v-4.238h-46.83v4.238zM554.718 448v-56.865h-4.238V448h4.238zm-2.119-54.746h45.938v-4.238h-45.938v4.238zm45.938 0c7.368 0 11.391 1.242 13.78 4.136 2.511 3.041 3.725 8.458 3.725 18.275h4.238c0-9.807-1.129-16.655-4.694-20.973-3.687-4.465-9.476-5.676-17.049-5.676v4.238zm17.505 22.411c0 15.577.863 25.434 4.918 33.305l3.767-1.94c-3.527-6.847-4.447-15.722-4.447-31.365h-4.238zm6.802 34.454h51.29v-4.238h-51.29v4.238zM676.253 448v-2.007h-4.238V448h4.238zm-.536-3.415c-3.202-3.603-5.332-8.968-6.638-15.799-1.301-6.804-1.746-14.846-1.746-23.602h-4.238c0 8.861.446 17.209 1.821 24.398 1.37 7.163 3.7 13.394 7.634 17.819l3.167-2.816zm-8.384-39.401c0-10.929-2.597-18.586-8.096-24.054-5.406-5.376-13.324-8.323-23.213-10.57l-.939 4.132c9.736 2.213 16.647 4.952 21.164 9.444 4.425 4.4 6.846 10.792 6.846 21.048h4.238zm-31.31-30.491c11.982-2.713 20.528-6.637 26.037-12.841 5.552-6.254 7.726-14.488 7.726-25.129h-4.238c0 10.098-2.063 17.14-6.658 22.315-4.638 5.224-12.148 8.882-23.803 11.521l.936 4.134zm33.763-37.97v-6.69h-4.238v6.69h4.238zm0-6.69c0-11.852-.542-21.442-2.175-29.131-1.64-7.716-4.41-13.675-8.978-18.105-4.561-4.424-10.701-7.117-18.679-8.717-7.958-1.597-17.914-2.139-30.267-2.139v4.238c12.288 0 21.9.545 29.433 2.056 7.514 1.508 12.789 3.945 16.562 7.604 3.767 3.653 6.251 8.733 7.783 15.944 1.537 7.238 2.083 16.464 2.083 28.25h4.238zm-115.068 25.422V311.97h-4.238v43.485h4.238zm-2.119-41.366h45.046v-4.238h-45.046v4.238zm45.046 0c4.864 0 8.597.238 11.479.825 2.867.584 4.736 1.485 6.023 2.696 1.274 1.2 2.179 2.895 2.759 5.459.587 2.596.812 5.945.812 10.309h4.238c0-4.445-.222-8.176-.917-11.245-.702-3.102-1.916-5.658-3.987-7.608-2.058-1.938-4.76-3.087-8.082-3.764-3.305-.674-7.378-.91-12.325-.91v4.238zm21.073 19.289c0 4.533-.225 8.013-.816 10.71-.584 2.668-1.496 4.426-2.775 5.662-1.287 1.244-3.15 2.159-6.01 2.752-2.878.596-6.607.834-11.472.834v4.238c4.946 0 9.022-.236 12.332-.922 3.329-.69 6.037-1.865 8.095-3.855 2.067-1.997 3.273-4.616 3.971-7.802.691-3.156.913-7.007.913-11.617h-4.238zm-21.073 19.958h-45.046v4.238h45.046v-4.238zM851.38 274.06l1.856 1.024 1.734-3.143h-3.59v2.119zm-51.29 0v-2.119h-1.297l-.59 1.156 1.887.963zm-33.004 64.67v2.119h1.298l.59-1.156-1.888-.963zm-1.338 0l-1.895.948.586 1.171h1.309v-2.119zm-32.335-64.67l1.896-.948-.586-1.171h-1.31v2.119zm-53.52 0v-2.119h-3.621l1.774 3.157 1.847-1.038zm62.886 111.946h2.119v-.554l-.271-.484-1.848 1.038zm0 61.994h-2.119v2.119h2.119V448zm46.83 0v2.119h2.119V448h-2.119zm0-61.994l-1.855-1.024-.264.478v.546h2.119zm61.771-114.065h-51.29v4.238h51.29v-4.238zm-53.177 1.156l-33.004 64.67 3.775 1.926 33.004-64.67-3.775-1.926zm-31.117 63.514h-1.338v4.238h1.338v-4.238zm.558 1.171l-32.335-64.67-3.791 1.896 32.335 64.67 3.791-1.896zm-34.231-65.841h-53.52v4.238h53.52v-4.238zm-55.367 3.157l62.886 111.946 3.695-2.076-62.886-111.946-3.695 2.076zm62.614 110.908V448h4.238v-61.994h-4.238zm2.119 64.113h46.83v-4.238h-46.83v4.238zM791.728 448v-61.994h-4.238V448h4.238zm-.263-60.97l61.771-111.946-3.711-2.048-61.771 111.946 3.711 2.048zm115.847-72.83v-2.119h-2.11l-.01 2.109 2.12.01zm0 93.66l-2.12.01.01 2.109h2.11v-2.119zm-.223-46.83l-2.12-.01v.01.01l2.12-.01zM860.482 448h-2.12v2.119h2.12V448zm0-173.94v-2.119h-2.12v2.119h2.12zm46.83 42.259h38.133v-4.238h-38.133v4.238zm38.133 0c7.503 0 13.249.353 17.696 1.454 4.381 1.084 7.374 2.863 9.531 5.664 2.206 2.864 3.711 7.018 4.639 13.187.927 6.159 1.248 14.111 1.248 24.406h4.239c0-10.332-.32-18.548-1.296-25.037-.974-6.479-2.632-11.455-5.472-15.142-2.888-3.749-6.822-5.942-11.87-7.192-4.982-1.234-11.167-1.578-18.715-1.578v4.238zm33.114 44.711c0 10.183-.321 18.079-1.248 24.217-.927 6.147-2.433 10.32-4.644 13.215-4.331 5.671-12.035 7.279-27.222 7.279v4.238c14.917 0 24.83-1.403 30.59-8.944 2.834-3.712 4.492-8.696 5.467-15.155.976-6.468 1.296-14.628 1.296-24.85h-4.239zm-33.114 44.711h-38.133v4.238h38.133v-4.238zm-36.014 2.109l-.223-46.83-4.239.02.223 46.83 4.239-.02zm-.223-46.81l.223-46.83-4.239-.02-.223 46.83 4.239.02zm-48.726 89.079h89.869v-4.238h-89.869v4.238zm89.869 0c16.697 0 30.181-.736 40.981-3.069 10.838-2.339 19.118-6.317 25.268-12.908 6.13-6.575 9.92-15.528 12.19-27.42 2.27-11.88 3.07-26.873 3.07-45.692h-4.24c0 18.757-.8 33.423-2.99 44.895-2.19 11.46-5.75 19.552-11.13 25.327-5.37 5.757-12.76 9.431-23.063 11.656-10.337 2.232-23.446 2.973-40.086 2.973v4.238zm81.509-89.089c0-18.819-.8-33.812-3.07-45.692-2.27-11.892-6.06-20.845-12.19-27.42-6.15-6.591-14.43-10.569-25.268-12.908-10.8-2.333-24.284-3.069-40.981-3.069v4.238c16.64 0 29.749.741 40.086 2.973 10.303 2.225 17.693 5.899 23.063 11.656 5.38 5.775 8.94 13.867 11.13 25.327 2.19 11.472 2.99 26.138 2.99 44.895h4.24zm-81.509-89.089h-89.869v4.238h89.869v-4.238zm-91.989 2.119V448h4.239V274.06h-4.239zm314.008 0l2.01-.684-.49-1.435h-1.52v2.119zm-75.82 0v-2.119h-1.51l-.49 1.428 2 .691zM1036.57 448l-2.01-.691-.97 2.81h2.98V448zm51.29 0v2.119h1.6l.44-1.542-2.04-.577zm9.59-33.896v-2.119h-1.61l-.43 1.542 2.04.577zm69.79 0l2.02-.65-.47-1.469h-1.55v2.119zM1178.17 448l-2.02.65.48 1.469h1.54V448zm53.52 0v2.119h2.96l-.95-2.803-2.01.684zm-123.32-71.806l-1.99-.728-1.04 2.847h3.03v-2.119zm24.31-66.454v-2.119h-1.48l-.51 1.391 1.99.728zm1.78 0l2.01-.674-.48-1.445h-1.53v2.119zm22.3 66.454v2.119h2.95l-.94-2.793-2.01.674zm15.61-104.253h-75.82v4.238h75.82v-4.238zm-77.82 1.428l-59.99 173.94 4.01 1.382 59.99-173.94-4.01-1.382zm-57.98 176.75h51.29v-4.238h-51.29v4.238zm53.33-1.542l9.58-33.896-4.07-1.154-9.59 33.896 4.08 1.154zm7.55-32.354h69.79v-4.238h-69.79v4.238zm67.78-1.469l10.92 33.896 4.04-1.3-10.93-33.896-4.03 1.3zm12.94 35.365h53.52v-4.238h-53.52v4.238zm55.53-2.803l-59.32-173.94-4.01 1.368 59.32 173.94 4.01-1.368zm-123.34-70.394l24.31-66.454-3.98-1.456-24.31 66.454 3.98 1.456zm22.32-65.063h1.78v-4.238h-1.78v4.238zm-.23-1.445l22.3 66.454 4.02-1.348-22.3-66.454-4.02 1.348zm24.31 63.661h-48.39v4.238h48.39v-4.238zm214.06-100.015l1.85 1.024 1.74-3.143h-3.59v2.119zm-51.29 0v-2.119h-1.3l-.59 1.156 1.89.963zm-33.01 64.67v2.119h1.3l.59-1.156-1.89-.963zm-1.33 0l-1.9.948.59 1.171h1.31v-2.119zm-32.34-64.67l1.9-.948-.59-1.171h-1.31v2.119zm-53.52 0v-2.119h-3.62l1.77 3.157 1.85-1.038zm62.89 111.946h2.12v-.554l-.27-.484-1.85 1.038zm0 61.994h-2.12v2.119h2.12V448zm46.83 0v2.119h2.12V448h-2.12zm0-61.994l-1.86-1.024-.26.478v.546h2.12zm61.77-114.065h-51.29v4.238h51.29v-4.238zm-53.18 1.156l-33 64.67 3.77 1.926 33.01-64.67-3.78-1.926zm-31.12 63.514h-1.33v4.238h1.33v-4.238zm.56 1.171l-32.33-64.67-3.79 1.896 32.33 64.67 3.79-1.896zm-34.23-65.841h-53.52v4.238h53.52v-4.238zm-55.37 3.157l62.89 111.946 3.7-2.076-62.89-111.946-3.7 2.076zm62.62 110.908V448h4.24v-61.994h-4.24zm2.12 64.113h46.83v-4.238h-46.83v4.238zm48.95-2.119v-61.994h-4.24V448h4.24zm-.27-60.97l61.77-111.946-3.71-2.048-61.77 111.946 3.71 2.048z"/></g><g stroke="#fff" stroke-width="1.5"><path d="M505.25 61.489c0 .407-.171.868-.624 1.395s-1.172 1.093-2.17 1.669c-1.998 1.153-4.992 2.29-8.917 3.386-7.839 2.189-19.217 4.169-33.318 5.835-28.193 3.331-67.163 5.392-110.221 5.392s-82.028-2.062-110.221-5.392c-14.101-1.666-25.479-3.646-33.318-5.835-3.925-1.096-6.919-2.233-8.917-3.386-.998-.577-1.713-1.137-2.17-1.669s-.624-.989-.624-1.395.171-.868.624-1.395 1.172-1.093 2.17-1.669c1.998-1.153 4.992-2.29 8.917-3.386 7.839-2.189 19.217-4.169 33.318-5.835C267.972 45.872 306.942 43.81 350 43.81s82.028 2.062 110.221 5.392c14.101 1.666 25.479 3.646 33.318 5.835 3.925 1.096 6.919 2.233 8.917 3.386.998.577 1.713 1.137 2.17 1.669s.624.989.624 1.395zm0 45.758c0 1.575-.909 3.227-2.907 4.938s-4.976 3.386-8.889 5.006c-7.82 3.239-19.181 6.172-33.275 8.641-28.176 4.936-67.13 7.994-110.179 7.994s-82.003-3.058-110.179-7.994c-14.094-2.469-25.455-5.402-33.275-8.641-3.913-1.62-6.896-3.3-8.889-5.006s-2.907-3.363-2.907-4.938.909-3.228 2.907-4.938c1.993-1.706 4.976-3.386 8.889-5.007 7.82-3.239 19.181-6.172 33.275-8.641 28.176-4.936 67.13-7.993 110.179-7.993s82.003 3.057 110.179 7.993c14.094 2.469 25.455 5.402 33.275 8.641 3.913 1.621 6.896 3.301 8.889 5.007s2.907 3.363 2.907 4.938zm0 69.735c0 5.457-4.078 10.839-11.915 15.876-7.802 5.014-19.143 9.559-33.223 13.386-28.15 7.653-67.081 12.395-110.112 12.395s-81.962-4.742-110.112-12.395c-14.08-3.827-25.421-8.372-33.223-13.386-7.837-5.037-11.915-10.419-11.915-15.876s4.078-10.839 11.915-15.876c7.802-5.015 19.143-9.559 33.223-13.387 28.15-7.652 67.081-12.394 110.112-12.394s81.962 4.742 110.112 12.394c14.08 3.828 25.421 8.372 33.223 13.387 7.837 5.037 11.915 10.419 11.915 15.876z"/><path d="M350 61.29v115.457"/></g></svg>