<svg xmlns="http://www.w3.org/2000/svg" width="192" height="30" fill="#fafafa" xmlns:v="https://vecta.io/nano"><path d="M6.36 15.958c.167-1.87 1.365-2.771 3.63-2.771 3.064 0 3.63.693 3.63 3.775v2.632c0 3.048-.566 3.74-3.63 3.74-2.231 0-3.43-.693-3.63-2.043v-5.333zM0 .927v27.706h6.161v-4.987c.666 3.602 2.831 5.403 6.527 5.403 6.194 0 7.593-1.558 7.593-9.316v-2.978c0-7.758-1.365-9.316-7.26-9.316-3.996 0-5.927.935-6.693 4.156V.927H0zm29.09 21.784c0-1.316.333-1.558 2.065-1.558l5.228-.035v.901c0 1.662-1.032 2.286-3.863 2.355h-.333c-2.597 0-3.097-.277-3.097-1.662zm4.795-15.273h-1.532c-7.792 0-9.257 1.108-9.257 6.823v.831h6.327c-.067-2.39.5-2.805 3.63-2.805 2.797 0 3.33.415 3.33 2.805v1.178l-6.327.035c-6.427 0-7.626 1.004-7.626 6.338 0 5.576 1.199 6.615 7.726 6.407 3.13-.035 5.361-1.316 6.227-4.087v3.671h6.327V14.641c0-6.061-1.399-7.204-8.825-7.204zm16.956 14.684v-.45h-5.994v.45c0 5.818 1.399 6.927 8.725 6.927h1.532c8.392 0 9.923-.97 9.923-5.957 0-3.221-.766-5.091-3.963-6.061-1.698-.519-3.23-.935-6.494-1.489-2.164-.346-2.764-.762-2.764-1.628 0-1.281.666-1.628 3.13-1.628 2.564 0 3.264.485 3.264 2.182v.623h6.327v-.623c0-5.922-1.399-7.03-8.825-7.03H54.17c-7.593 0-9.024.97-9.024 6.268 0 2.771.699 4.329 3.43 5.403 1.998.796 5.028 1.281 6.194 1.524 2.93.554 3.63 1.108 3.63 1.974 0 1.247-.766 1.593-3.63 1.593-3.097 0-3.929-.45-3.929-2.078zm22.761-6.511v-.104c0-2.701.599-3.221 3.863-3.221 3.097 0 3.763.519 3.796 3.325h-7.659zm14.153 6.407h-6.66c0 1.801-.566 2.182-3.63 2.182-3.264 0-3.863-.589-3.863-3.636v-.104h14.319v-3.186-.035c0-8.243-1.532-9.801-9.724-9.801h-1.532c-8.192 0-9.724 1.697-9.724 10.805s1.532 10.805 9.724 10.805h1.532c8.059 0 9.557-1.108 9.557-7.03zm2.97-14.165v20.78h6.327V16.615c0-2.424 1.099-3.636 3.297-3.636 2.564 0 3.03.52 3.03 3.221v12.433h6.294l-.034-12.225c.067-2.286 1.166-3.429 3.297-3.429 2.531 0 2.997.52 2.997 3.221v12.433h6.294l-.033-13.437c0-6.511-1.133-7.758-7.227-7.758-3.363 0-5.394 1.524-6.127 4.814-.266-3.948-1.365-4.814-6.394-4.814-2.997 0-4.695 1.281-5.394 4.398V7.853h-6.327zm40.618 7.758v-.104c0-2.701.599-3.221 3.863-3.221 3.097 0 3.763.519 3.796 3.325h-7.659zm14.152 6.407h-6.66c0 1.801-.566 2.182-3.629 2.182-3.264 0-3.863-.589-3.863-3.636v-.104h14.319v-3.186-.035c0-8.243-1.532-9.801-9.724-9.801h-1.532c-8.192 0-9.723 1.697-9.723 10.805s1.531 10.805 9.723 10.805h1.532c8.059 0 9.557-1.108 9.557-7.03zm2.9-14.165v20.78h6.327V16.269c.034-2.217 1.199-3.29 3.497-3.29 2.93 0 3.463.589 3.463 3.775v11.879h6.327l-.033-13.437c0-6.511-1.099-7.758-6.893-7.758-3.63 0-5.595 1.281-6.361 4.641V7.853h-6.327zm35.543 14.893h-3.697c-1.931 0-2.297-.346-2.297-2.113v-7.238h5.661V7.853h-5.661V3.421h-5.994v4.433h-2.331v5.541h1.998v8.243c0 5.888 1.298 6.996 7.992 6.996h4.329v-5.887zm8.062 0h-5.661v5.887H192v-5.887z"/></svg>