<svg xmlns="http://www.w3.org/2000/svg" width="284" height="24" fill="none" xmlns:v="https://vecta.io/nano"><g clip-path="url(#A)"><g fill="#fff"><path d="M11.781 12h11.19c0 6.064-5.01 10.98-11.19 10.98V12z"/><path d="M11.781 1.02V12H.591c0-6.064 5.01-10.98 11.19-10.98z"/></g><g stroke="#fff" stroke-miterlimit="10"><path d="M11.781 22.98c6.18 0 11.19-4.916 11.19-10.98s-5.01-10.98-11.19-10.98S.591 5.936.591 12s5.01 10.98 11.19 10.98zm130.633-.951c22.658 0 41.027-4.49 41.027-10.029S165.072 1.971 142.414 1.971 101.386 6.461 101.386 12s18.369 10.029 41.028 10.029z"/><path d="M142.414 22.029c5.645 0 10.221-4.49 10.221-10.029s-4.576-10.029-10.221-10.029S132.192 6.461 132.192 12s4.577 10.029 10.222 10.029z"/></g><g fill="#fff"><path d="M142.414 13.844c1.037 0 1.878-.825 1.878-1.844s-.841-1.844-1.878-1.844-1.879.825-1.879 1.844.841 1.844 1.879 1.844zM243.233 24h-37.601c-1.335 0-2.422-1.067-2.422-2.377V2.377c0-1.31 1.087-2.377 2.422-2.377h37.601c1.335 0 2.422 1.067 2.422 2.377v19.235c.012 1.322-1.075 2.388-2.422 2.388z"/></g><g fill="#000"><path d="M210.253 15.003v-2.041l7.326-5.82h3.675v5.994h2.068v1.867h-2.068v2.168h-2.931v-2.168h-8.07zm8.059-5.704h-.071l-4.715 3.768v.081h4.797V9.299h-.011zm20.501 7.872h-3.828l-4.231-4.985-2.859 2.064v2.922h-3.025V6.91h3.025v4.499l6.074-4.499h4.088l-4.986 3.606 5.742 6.655z"/></g><path d="M79.431 24h-37.6c-1.335 0-2.422-1.067-2.422-2.377V2.377C39.397 1.067 40.484 0 41.831 0h37.6c1.335 0 2.422 1.067 2.422 2.377v19.235c0 1.322-1.087 2.388-2.422 2.388z" fill="#fff"/><g fill="#000"><path d="M59.603 6.91v10.261h-3.025v-4.162h-7.35v4.162h-3.025V6.91h3.025v3.919h7.35V6.91h3.025zm15.87 5.136c0 3.687-2.245 5.125-6.298 5.125h-7.362V6.91h7.362c4.041 0 6.298 1.449 6.298 5.136zM64.838 9.055v5.971h3.675c2.304 0 3.628-.846 3.628-2.991s-1.323-2.991-3.628-2.991h-3.675v.012z"/></g><path d="M283.705 22.516h-23.988c-.012-.012-.024-.012-.036-.023-.13-.046-.212-.139-.26-.267-.011-.023-.011-.035-.035-.058v-.162c.012-.012.024-.035.024-.046l.071-.139 1.004-1.693 1.276-2.18 1.678-2.852 1.584-2.702 1.689-2.864 1.525-2.586 1.689-2.864 1.383-2.354c.071-.116.165-.209.295-.243.012 0 .012-.012.024-.012h.177c.012.012.036.012.048.023.106.035.177.104.236.197.012.023.035.046.047.081l.957 1.623 1.891 3.223 2.73 4.638 2.528 4.29 1.962 3.339 1.725 2.933c.024.046.059.104.071.151v.232c-.047.139-.13.232-.26.29-.012.012-.024.012-.035.023zm-11.994-14.33h-2.151-.094c-.048 0-.06.023-.06.07v.035l.024.406.024.383.023.359.048.615.035.638c0 .093.012.186.024.278l.023.359.024.383c0 .093.012.185.024.278l.023.371.024.359c0 .093.012.186.024.278l.023.383.024.359c0 .093.012.185.023.278l.024.383.024.359c0 .093.012.186.023.278l.024.417c.012.104.012.116.118.116h3.391.071c.036 0 .048-.023.059-.046 0-.023 0-.046.012-.069l.024-.359.024-.36.023-.336.047-.568.036-.603c0-.093.012-.174.024-.267l.023-.325.024-.359c0-.093.012-.174.023-.267l.024-.359.024-.336.023-.267.024-.336s.012-.232.024-.348c0-.081.011-.162.023-.255l.024-.359.023-.336c0-.081.012-.174.024-.255l.024-.348.023-.406c0-.058.012-.104.012-.162 0-.035-.012-.058-.059-.058h-.094-2.198zm0 8.255h-2.104-.082c-.036 0-.059.023-.059.058v.093 1.704 1.762.093c0 .035.023.046.047.046h.094 3.77.437.071a.05.05 0 0 0 .047-.046v-.093-1.89-1.577-.093c0-.035-.023-.058-.059-.058h-.083-2.079z" fill="#fff"/></g><defs><clipPath id="A"><path fill="#fff" d="M0 0h284v24H0z"/></clipPath></defs></svg>