<svg xmlns="http://www.w3.org/2000/svg" width="147" height="147" fill="none" xmlns:v="https://vecta.io/nano"><path d="M66.582 106.146l1.917 4.684 19.367 16.727 10.701-10.286 25.49 22.016 19.954-19.205-4.89-12.043-39.262-33.921 45.6-43.875-4.891-12.062-19.386-16.726-40.847 39.308-1.898-4.665L59.05 19.352 48.349 29.657 22.859 7.622 2.906 26.827l4.91 12.042 39.242 33.921-45.6 43.895 4.891 12.042 19.386 16.726 40.847-39.308z" fill="#000"/><g stroke="#fff" stroke-width="1.5" stroke-linecap="round" stroke-linejoin="round"><path d="M20.825 133.412L140.567 18.181"/><path d="M2.906 26.827l116.26 100.417"/><path d="M58.483 55.284l29.383 72.273m-62.131 17.897L75.62 97.441M51.342 68.673L1.458 116.686M75.62 97.441l48.437 41.846m15.062-31.248L90.683 66.194m9.174 7.924l45.601-43.875"/><path d="M47.058 72.791l-45.6 43.895m24.277 28.768l40.847-39.308M121.181 1.455L80.334 40.763M7.816 38.869L47.059 72.79m92.06 35.249L99.857 74.118M48.349 29.657L22.859 7.622m75.708 109.649l25.49 22.016M78.437 36.098l12.246 30.096"/><path d="M39.096 38.557l12.246 30.115m72.714 70.615l19.954-19.205M59.05 19.352L39.096 38.557m100.023 69.482l-19.953 19.206M2.906 26.827L22.859 7.622m35.624 47.662l19.954-19.186m9.429 91.459l-19.367-16.726m9.937-74.733L59.05 19.352m62.131-17.897l19.386 16.726"/><path d="M39.096 38.557l19.386 16.727m-37.657 78.128L1.458 116.686m4.891 12.042l19.386 16.727M59.05 19.352l-10.7 10.305m50.216 87.614l-10.701 10.286m56.145-7.475l-4.89-12.043"/><path d="M25.735 145.454l-4.91-12.042M1.458 116.686l4.891 12.042M140.567 18.181l4.891 12.062M7.816 38.869l-4.91-12.042m116.26 100.418l4.89 12.042M78.437 36.098l1.898 4.665m-13.753 65.383l1.917 4.684"/></g></svg>